<svg fill="none" height="128" viewBox="0 0 128 128" width="128" xmlns="http://www.w3.org/2000/svg"><path d="m0 0h128v128h-128z" fill="#36f"/><circle cx="64" cy="64" fill="#fff" r="40"/><g fill="#1522af"><path d="m64.24 83.96v8.04l11.28-11.32-11.32-11.32v8.56c-3.68.08-7.36-1.24-10.16-4.04-4.48-4.48-5.2-11.2-2.36-16.52l-4.4-4.4c-5.12 7.76-4.28 18.32 2.56 25.16 3.92 3.88 9.04 5.84 14.16 5.84z"/><path d="m76.28 70.64 4.4 4.4c5.12-7.76 4.28-18.36-2.52-25.16-3.96-4-9.2-5.88-14.4-5.8v-8.08l-11.32 11.32 11.32 11.28v-8.6h.24c3.6 0 7.16 1.36 9.92 4.12 4.48 4.48 5.2 11.2 2.36 16.52z"/></g></svg>