<svg fill="none" height="128" width="128" xmlns="http://www.w3.org/2000/svg"><path d="m12 24c0-6.627 5.373-12 12-12h80c6.627 0 12 5.373 12 12v80c0 6.627-5.373 12-12 12h-80c-6.627 0-12-5.373-12-12z" fill="#1e1e1e"/><path d="m75.306 59.066h10.826c1.624 0 2.707-1.083 2.707-2.707v-10.826c0-1.624-1.083-2.707-2.707-2.707h-10.826c-1.624 0-2.707 1.083-2.707 2.707v10.826c0 1.624 1.083 2.707 2.707 2.707zm-21.653 10.826h-10.827c-1.624 0-2.706 1.083-2.706 2.707v10.826c0 1.624 1.082 2.707 2.706 2.707h10.827c1.624 0 2.706-1.083 2.706-2.707v-10.825c0-1.624-1.082-2.707-2.706-2.707zm27.066-7.037-9.473 9.745 2.977 2.977 4.601-4.601c-.27 2.977-.812 6.225-2.436 7.85-.812.811-1.894 1.352-3.518 1.352h-12.18v4.06h11.909c2.436 0 4.601-.812 6.225-2.436 2.707-2.706 3.519-7.307 3.79-10.826l4.871 4.872 2.978-2.977-9.744-10.015zm-30.314-4.601c.27-2.977.812-6.225 2.436-7.85 1.082-1.082 2.165-1.623 3.518-1.623h12.18v-3.79h-12.179c-2.436 0-4.6.813-6.225 2.437-2.706 2.706-3.518 7.307-3.789 10.826l-4.872-4.601-2.706 2.706 9.473 9.744 9.473-9.744-2.707-2.706-4.601 4.601z" fill="#fff"/><path d="m104 48c13.254 0 24-10.746 24-24s-10.746-24-24-24-24 10.746-24 24 10.744 24 24 24z" fill="#003da5"/><path d="m114.909 28.727v-3.273h-3.273zm-6.182-6.181h6.182v-3.273h-9.454zm-6.182-6.182h12.364v-3.274h-15.636l3.272 3.273zm-9.455-3.274 21.819 21.82h-6.182l-11.273-11.275v11.275h-4.363v-21.819z" fill="#fff"/></svg>